<svg width="83" height="23" viewBox="0 0 83 23" fill="none" xmlns="http://www.w3.org/2000/svg">
<path d="M8.58691 17.3271H15.9844V22H0.0615234V18.4404C0.237305 18.3232 0.725586 18.0107 1.52637 17.5029C2.33691 16.9854 3.06445 16.5117 3.70898 16.082C4.36328 15.6523 5.13477 15.0859 6.02344 14.3828C6.92188 13.6699 7.67383 12.9961 8.2793 12.3613C8.89453 11.7266 9.41699 11.0137 9.84668 10.2227C10.2861 9.43164 10.5059 8.67969 10.5059 7.9668C10.5059 7.60547 10.4473 7.26855 10.3301 6.95605C10.2227 6.63379 10.042 6.32617 9.78809 6.0332C9.54395 5.74023 9.18262 5.51074 8.7041 5.34473C8.22559 5.17871 7.6543 5.0957 6.99023 5.0957C5.75977 5.0957 4.51465 5.34961 3.25488 5.85742C2.00488 6.35547 0.964844 6.90234 0.134766 7.49805V2.44434C2.47852 0.979492 4.9541 0.24707 7.56152 0.24707C8.64551 0.24707 9.63184 0.369141 10.5205 0.613281C11.4189 0.857422 12.1807 1.19434 12.8057 1.62402C13.4404 2.05371 13.9727 2.56641 14.4023 3.16211C14.832 3.74805 15.1494 4.3877 15.3545 5.08105C15.5596 5.76465 15.6621 6.4873 15.6621 7.24902C15.6621 10.8428 13.3037 14.2021 8.58691 17.3271ZM30.1043 22.3076C28.4148 22.3076 26.8963 21.8535 25.5486 20.9453C24.2107 20.0371 23.1561 18.7432 22.3846 17.0635C21.6229 15.374 21.242 13.4404 21.242 11.2627C21.242 9.6123 21.4666 8.09863 21.9158 6.72168C22.3748 5.33496 22.9949 4.17285 23.7762 3.23535C24.5672 2.28809 25.5047 1.55566 26.5887 1.03809C27.6824 0.510742 28.8543 0.24707 30.1043 0.24707C31.3543 0.24707 32.5213 0.510742 33.6053 1.03809C34.699 1.55566 35.6365 2.28809 36.4178 3.23535C37.2088 4.17285 37.8289 5.33496 38.2781 6.72168C38.7273 8.09863 38.952 9.6123 38.952 11.2627C38.952 12.9131 38.7273 14.4316 38.2781 15.8184C37.8289 17.2051 37.2088 18.3721 36.4178 19.3193C35.6268 20.2666 34.6893 21.0039 33.6053 21.5312C32.5213 22.0488 31.3543 22.3076 30.1043 22.3076ZM30.075 17.0635C31.2469 17.0635 32.199 16.5605 32.9314 15.5547C33.6736 14.5391 34.0447 13.1084 34.0447 11.2627C34.0447 9.3877 33.6736 7.96191 32.9314 6.98535C32.1893 5.99902 31.2371 5.50586 30.075 5.50586C28.9129 5.50586 27.9656 6.01367 27.2332 7.0293C26.5105 8.03516 26.1492 9.45117 26.1492 11.2773C26.1492 13.1523 26.5154 14.5879 27.2479 15.584C27.9803 16.5703 28.9227 17.0635 30.075 17.0635ZM52.5738 22.3076C50.8844 22.3076 49.3658 21.8535 48.0182 20.9453C46.6803 20.0371 45.6256 18.7432 44.8541 17.0635C44.0924 15.374 43.7115 13.4404 43.7115 11.2627C43.7115 9.6123 43.9361 8.09863 44.3854 6.72168C44.8443 5.33496 45.4645 4.17285 46.2457 3.23535C47.0367 2.28809 47.9742 1.55566 49.0582 1.03809C50.152 0.510742 51.3238 0.24707 52.5738 0.24707C53.8238 0.24707 54.9908 0.510742 56.0748 1.03809C57.1686 1.55566 58.1061 2.28809 58.8873 3.23535C59.6783 4.17285 60.2984 5.33496 60.7477 6.72168C61.1969 8.09863 61.4215 9.6123 61.4215 11.2627C61.4215 12.9131 61.1969 14.4316 60.7477 15.8184C60.2984 17.2051 59.6783 18.3721 58.8873 19.3193C58.0963 20.2666 57.1588 21.0039 56.0748 21.5312C54.9908 22.0488 53.8238 22.3076 52.5738 22.3076ZM52.5445 17.0635C53.7164 17.0635 54.6686 16.5605 55.401 15.5547C56.1432 14.5391 56.5143 13.1084 56.5143 11.2627C56.5143 9.3877 56.1432 7.96191 55.401 6.98535C54.6588 5.99902 53.7066 5.50586 52.5445 5.50586C51.3824 5.50586 50.4352 6.01367 49.7027 7.0293C48.9801 8.03516 48.6188 9.45117 48.6188 11.2773C48.6188 13.1523 48.985 14.5879 49.7174 15.584C50.4498 16.5703 51.3922 17.0635 52.5445 17.0635ZM82.9389 10.8086V15.7891H76.7426V22H71.7621V15.7891H65.5805V10.8086H71.7621V4.62695H76.7426V10.8086H82.9389Z" fill="url(#paint0_linear_312_2681)"/>
<defs>
<linearGradient id="paint0_linear_312_2681" x1="-3" y1="27" x2="85" y2="27" gradientUnits="userSpaceOnUse">
<stop offset="0.118441" stop-color="#6542F4"/>
<stop offset="0.515625" stop-color="#F976FF"/>
<stop offset="0.864583" stop-color="#B50098"/>
</linearGradient>
</defs>
</svg>
