<svg width="84" height="23" viewBox="0 0 84 23" fill="none" xmlns="http://www.w3.org/2000/svg">
<path d="M11.9434 8.37695C14.8145 9.42188 16.25 11.5166 16.25 14.6611C16.25 17.0439 15.4346 18.9141 13.8037 20.2715C12.1729 21.6289 9.86816 22.3076 6.88965 22.3076C4.78027 22.3076 2.70996 21.8926 0.678711 21.0625V16.6094C2.53418 17.4395 4.41406 17.8545 6.31836 17.8545C8.04688 17.8545 9.32129 17.5566 10.1416 16.9609C10.9619 16.3555 11.3721 15.54 11.3721 14.5146C11.3721 12.6299 10.0342 11.7021 7.3584 11.7314H5.9668V9.3291L10.0684 5.06641H1.26465V0.525391H16.001V4.09961L11.9434 8.37695ZM30.6043 22.3076C28.9148 22.3076 27.3963 21.8535 26.0486 20.9453C24.7107 20.0371 23.6561 18.7432 22.8846 17.0635C22.1229 15.374 21.742 13.4404 21.742 11.2627C21.742 9.6123 21.9666 8.09863 22.4158 6.72168C22.8748 5.33496 23.4949 4.17285 24.2762 3.23535C25.0672 2.28809 26.0047 1.55566 27.0887 1.03809C28.1824 0.510742 29.3543 0.24707 30.6043 0.24707C31.8543 0.24707 33.0213 0.510742 34.1053 1.03809C35.199 1.55566 36.1365 2.28809 36.9178 3.23535C37.7088 4.17285 38.3289 5.33496 38.7781 6.72168C39.2273 8.09863 39.452 9.6123 39.452 11.2627C39.452 12.9131 39.2273 14.4316 38.7781 15.8184C38.3289 17.2051 37.7088 18.3721 36.9178 19.3193C36.1268 20.2666 35.1893 21.0039 34.1053 21.5312C33.0213 22.0488 31.8543 22.3076 30.6043 22.3076ZM30.575 17.0635C31.7469 17.0635 32.699 16.5605 33.4314 15.5547C34.1736 14.5391 34.5447 13.1084 34.5447 11.2627C34.5447 9.3877 34.1736 7.96191 33.4314 6.98535C32.6893 5.99902 31.7371 5.50586 30.575 5.50586C29.4129 5.50586 28.4656 6.01367 27.7332 7.0293C27.0105 8.03516 26.6492 9.45117 26.6492 11.2773C26.6492 13.1523 27.0154 14.5879 27.7479 15.584C28.4803 16.5703 29.4227 17.0635 30.575 17.0635ZM53.0738 22.3076C51.3844 22.3076 49.8658 21.8535 48.5182 20.9453C47.1803 20.0371 46.1256 18.7432 45.3541 17.0635C44.5924 15.374 44.2115 13.4404 44.2115 11.2627C44.2115 9.6123 44.4361 8.09863 44.8854 6.72168C45.3443 5.33496 45.9645 4.17285 46.7457 3.23535C47.5367 2.28809 48.4742 1.55566 49.5582 1.03809C50.652 0.510742 51.8238 0.24707 53.0738 0.24707C54.3238 0.24707 55.4908 0.510742 56.5748 1.03809C57.6686 1.55566 58.6061 2.28809 59.3873 3.23535C60.1783 4.17285 60.7984 5.33496 61.2477 6.72168C61.6969 8.09863 61.9215 9.6123 61.9215 11.2627C61.9215 12.9131 61.6969 14.4316 61.2477 15.8184C60.7984 17.2051 60.1783 18.3721 59.3873 19.3193C58.5963 20.2666 57.6588 21.0039 56.5748 21.5312C55.4908 22.0488 54.3238 22.3076 53.0738 22.3076ZM53.0445 17.0635C54.2164 17.0635 55.1686 16.5605 55.901 15.5547C56.6432 14.5391 57.0143 13.1084 57.0143 11.2627C57.0143 9.3877 56.6432 7.96191 55.901 6.98535C55.1588 5.99902 54.2066 5.50586 53.0445 5.50586C51.8824 5.50586 50.9352 6.01367 50.2027 7.0293C49.4801 8.03516 49.1188 9.45117 49.1188 11.2773C49.1188 13.1523 49.485 14.5879 50.2174 15.584C50.9498 16.5703 51.8922 17.0635 53.0445 17.0635ZM83.4389 10.8086V15.7891H77.2426V22H72.2621V15.7891H66.0805V10.8086H72.2621V4.62695H77.2426V10.8086H83.4389Z" fill="white"/>
</svg>
