<svg width="21" height="23" viewBox="0 0 21 23" fill="none" xmlns="http://www.w3.org/2000/svg">
<path d="M15.1533 7.68069C14.7338 7.68069 14.386 7.33285 14.386 6.9134V5.50158C14.386 4.42738 13.9256 3.38385 13.1276 2.65748C12.3194 1.92087 11.2759 1.58327 10.171 1.68557C8.32949 1.85949 6.71305 3.74192 6.71305 5.70619V6.69856C6.71305 7.11801 6.36521 7.46585 5.94576 7.46585C5.52631 7.46585 5.17847 7.11801 5.17847 6.69856V5.69596C5.17847 2.94393 7.3985 0.406749 10.0278 0.150984C11.5623 0.00775591 13.0356 0.488593 14.1609 1.52188C15.2761 2.53471 15.9206 3.98745 15.9206 5.50158V6.9134C15.9206 7.33285 15.5727 7.68069 15.1533 7.68069Z" fill="white"/>
<path d="M13.6184 22.1262H7.4801C2.75358 22.1262 1.87375 19.9266 1.64867 17.7884L0.881379 11.6603C0.768843 10.5554 0.727921 8.96967 1.80213 7.78292C2.72288 6.75987 4.24724 6.2688 6.45705 6.2688H14.6415C16.8615 6.2688 18.3859 6.7701 19.2964 7.78292C20.3604 8.96967 20.3297 10.5554 20.2172 11.6399L19.4499 17.7884C19.2248 19.9266 18.345 22.1262 13.6184 22.1262ZM6.45705 7.80339C4.72808 7.80339 3.54133 8.141 2.93773 8.81621C2.43643 9.36866 2.27274 10.2178 2.40574 11.4864L3.17303 17.6145C3.34695 19.2514 3.79709 20.6018 7.4801 20.6018H13.6184C17.3014 20.6018 17.7516 19.2616 17.9255 17.635L18.6928 11.4864C18.8258 10.2383 18.6621 9.38913 18.1608 8.82644C17.5572 8.141 16.3705 7.80339 14.6415 7.80339H6.45705Z" fill="white"/>
<path d="M14.0485 12.3047C13.4756 12.3047 13.0153 11.8443 13.0153 11.2816C13.0153 10.7189 13.4756 10.2585 14.0383 10.2585C14.601 10.2585 15.0614 10.7189 15.0614 11.2816C15.0614 11.8443 14.6112 12.3047 14.0485 12.3047Z" fill="white"/>
<path d="M6.88705 12.3047C6.31414 12.3047 5.85376 11.8443 5.85376 11.2816C5.85376 10.7189 6.31414 10.2585 6.87682 10.2585C7.4395 10.2585 7.89988 10.7189 7.89988 11.2816C7.89988 11.8443 7.44973 12.3047 6.88705 12.3047Z" fill="white"/>
</svg>
